<svg version="1" xmlns="http://www.w3.org/2000/svg" width="297.333" height="297.333" viewBox="0 0 223.000000 223.000000"><path d="M109.6 2.8C109.2 4 108.1 5 107 5c-2.6 0-3.3 1.5-1.5 3 .8.7 1.5 2.3 1.5 3.6 0 1.8.4 2.2 1.6 1.7 1.4-.5 1.6-.1 1.2 2-.4 1.9-.1 2.7.8 2.7.8 0 1.4-1.1 1.4-2.6 0-1.9.4-2.5 1.5-2 1.1.4 1.5-.2 1.5-2.1 0-1.5.7-3.5 1.7-4.5 1.5-1.7 1.5-1.8-.9-1.8-1.5 0-3.2-.9-4-2.2L110.3.5l-.7 2.3zM107.7 23.5c-.4 2.2-1.2 5.7-1.8 7.8-.8 3.2-1.3 3.6-2.5 2.6-1.2-.9-1.4-.6-1.3 2.2 0 2.8.2 3.1.9 1.4.7-1.6.9-1.3.9 1.6.1 2.2-.4 3.9-1.2 4.2-1 .4-1.3 2.3-.9 7.8.3 5.8.2 7.1-.9 6.7-1.1-.4-1.3.8-1.1 6.1l.3 6.7-3.6.1c-2.3.1-3.8-.4-4.2-1.3-.4-1.2-.8-1.1-1.9.3-1.2 1.7-1.3 1.6-1.4-.6 0-1.9-.3-2.1-1.4-1.2-1.1.9-1.6.9-2.2-.1-.6-.9-1-.6-1.4 1-.3 1.3-.9 2.3-1.5 2.3-.5 0-1.2-1-1.5-2.3-.4-1.6-.8-1.9-1.4-1-.6 1-1.1 1-2.1.2-1.1-.9-1.4-.6-1.7 1.2-.4 2.9-2.1 2.7-2.8-.4-.4-1.6-.8-1.9-1.4-1-.6 1-1.1 1-2.1.2-1.1-.9-1.4-.6-1.7 1.2-.4 2.9-2.1 2.7-2.8-.4-.4-1.5-.8-1.9-1.3-1.1-.4.7-1.3 1-2 .8-1.8-.7-3.7 4.3-3.7 9.7V83H11v46h200V83h-47v-5.4c0-3-.4-5.8-1-6.1-.5-.3-1-1.5-1-2.7 0-1.6-.3-1.8-1.4-.9-1.1.9-1.6.9-2.2-.1-.6-.9-1-.6-1.4 1-.7 3-2.3 3-3 0-.4-1.6-.8-1.9-1.4-1-.6 1-1.1 1-2.1.2-1.1-.9-1.4-.6-1.7 1.2-.4 2.9-2.1 2.7-2.8-.4-.4-1.6-.8-1.9-1.4-1-.6 1-1.1 1-2.1.2-1-.9-1.4-.6-1.7 1.1-.4 3.2-2.8 3.7-2.8.6 0-2.1-.4-2.4-2.2-1.9-1.3.3-2.6 1-3 1.6-.6.8-1.1.6-1.8-.4-.8-1.3-1-1.3-1 .2 0 1.2-.9 1.6-3.5 1.5l-3.5-.1v-6.9c0-5.7-.3-6.8-1.5-6.3-1.3.4-1.5-.7-1.5-6.9 0-4.3-.4-7.5-1-7.5-.5 0-1-1.7-1-3.8 0-2.7.3-3.3 1-2.2.7 1.2 1 .8 1-1.4 0-2.4-.2-2.6-1.4-1.6-1.5 1.2-2 .2-4.5-10.5-1.2-5.5-1.3-2-.1 4.5 1.1 5.6.5 7-3 7s-4-1.4-2.9-7.4c.5-3.1.8-6.3.6-6.9-.2-.7-.7.6-1 2.8zm2.3 14.1c0 2.2 1.7 1.6 2.4-.9.6-2.2.7-2.2 2.1-.3.8 1.1 1.5 2.8 1.5 3.8 0 2.4-2.9 3.5-4.1 1.7-.8-1.2-1-1.2-1.8 0-1.1 1.7-4.1.7-4.1-1.4 0-2.4 2-5.6 3.1-5 .5.4.9 1.3.9 2.1zm6 9.4c3 3 2.7 8.3-.6 10.9-3.6 2.8-6.6 2.6-9.8-.5-3.1-3.2-3.3-6.2-.5-9.8 2.6-3.3 7.9-3.6 10.9-.6zm-4 17.2c0 .7 1.8 3 4 5.2 3.6 3.5 4 4.4 4 8.7 0 2.7-.4 4.9-1 4.9-.5 0-1-1.9-1-4.3 0-3.4-.7-4.9-3.5-7.9l-3.5-3.7-3.5 3.6c-1.9 2-3.6 4.6-3.7 5.7-.1 1.2-.2 2.9-.3 3.8-.2 4.2-1.5 2.6-1.5-1.9s.4-5.5 4-9.2c2.2-2.2 4-4.6 4-5.1 0-.6.5-1 1-1 .6 0 1 .6 1 1.2zM98.8 74.8c.3 1.8-.1 2.2-2.2 2.2-1.9 0-2.6-.5-2.6-1.8 0-3.9 4.3-4.3 4.8-.4zm29.6-1.2c.9 2.2-.1 3.4-3 3.4-2.5 0-2.8-.7-1.8-3.4.8-2.1 4-2.1 4.8 0zm-63.9 3c0 1-.8 2-1.7 2.2-1.8.3-2.6-2.7-1.1-4.2 1.2-1.1 2.8 0 2.8 2zm7.5.5c0 1-.7 1.9-1.5 1.9-1.5 0-2.1-3.1-.9-4.3 1.1-1 2.4.3 2.4 2.4zm8.8-.3c.3 1.7-.2 2.2-1.7 2.2-1.4 0-2.1-.6-2.1-1.8 0-3.8 3.3-4.1 3.8-.4zm8 0c.3 1.7-.2 2.2-1.7 2.2-1.4 0-2.1-.6-2.1-1.8 0-3.8 3.3-4.1 3.8-.4zm48.2.3c0 1-.7 1.9-1.5 1.9-1.5 0-2.1-3.1-.9-4.3 1.1-1 2.4.3 2.4 2.4zm8 0c0 1-.7 1.9-1.5 1.9-1.5 0-2.1-3.1-.9-4.3 1.1-1 2.4.3 2.4 2.4zm8.5-.5c0 1-.8 2-1.7 2.2-1.8.3-2.6-2.7-1.1-4.2 1.2-1.1 2.8 0 2.8 2zm7.8 1c-.8 2-3.3 1.7-3.3-.4 0-1 .3-2.2.7-2.5 1-1.1 3.2 1.3 2.6 2.9zm-69.6 2.6c-.2 1.3-.4.5-.4-1.7-.1-2.2.1-3.2.4-2.3.2 1 .2 2.8 0 4zm39 0c-.2 1.3-.4.5-.4-1.7-.1-2.2.1-3.2.4-2.3.2 1 .2 2.8 0 4z"/><path d="M106.7 47.8c-2 2.2-2.2 7.3-.5 9 1.8 1.8 7.3 1.4 9.1-.6 2.3-2.5 2.1-5.8-.3-8.2-2.5-2.5-6.2-2.6-8.3-.2zM110.1 28c.1 3.3.6 6 1.1 6 .4 0 .8-2.7.8-6 0-3.5-.4-6-1.1-6-.6 0-.9 2.3-.8 6zM18 159.9V186h16v-18.8l9-.4c9.5-.4 12.3-1.6 16.2-6.9 2.9-3.9 3.4-11.7 1.1-17.1-3.2-7.1-6.5-8.2-26-8.6l-16.3-.4v26.1zM44.1 146c2.3 1.3 2.6 7.2.4 9-.8.7-3.5 1.5-6 1.8l-4.5.5V145h4.1c2.2 0 4.9.5 6 1zM71 160v26h15v-21.1l3.2.3c2.7.2 3.3.8 3.8 3.3 2.2 10.4 10.7 17.2 22.9 18.2 9.7.8 17.4-1.6 22.6-7.1 5-5.1 6.5-9.9 6.5-20.4 0-10.5-3.2-17.2-10.4-21.6-4.2-2.7-5.9-3.1-14.1-3.4-8.3-.4-9.9-.2-14.8 2.1-5.7 2.6-9.4 6.6-12.1 13-1.3 3.3-1.9 3.8-4.3 3.5l-2.8-.3-.3-9.3-.3-9.2H71v26zm51.9-13.9c5.2 1.8 7.8 9.1 6.6 18.1-1.3 9-8.1 13.2-15.9 9.7-7.7-3.6-7.4-23.7.4-27.6 3.1-1.6 4.8-1.6 8.9-.2zM155 160v26h15v-39h18v39h16v-52h-49v26zM11.7 191.7c-.4.3-.7 7.5-.7 16V223h200v-32h-99.3c-54.7 0-99.7.3-100 .7z"/></svg>